# This file uses centimeters as units for non-parametric coordinates.

mtllib room_ceiling.mtl
g default
v -180.902237 291.646057 -216.112854
v 160.507339 291.646057 -216.112854
v -180.902237 291.646057 169.229279
v 160.507339 291.646057 169.229279
vt 0.062667 0.006391
vt 0.937333 0.006391
vt 0.937333 0.993609
vt 0.062667 0.993609
vn 0.000000 -1.000000 0.000000
vn 0.000000 -1.000000 0.000000
vn 0.000000 -1.000000 0.000000
vn 0.000000 -1.000000 0.000000
s off
g room_ceiling
usemtl initialShadingGroup
f 1/1/1 2/2/2 4/3/3 3/4/4
